<svg version="1.1" viewBox="0.0 0.0 513.8267716535433 257.7769028871391" fill="none" stroke="none" stroke-linecap="square" stroke-miterlimit="10" xmlns:xlink="http://www.w3.org/1999/xlink" xmlns="http://www.w3.org/2000/svg"><clipPath id="p.0"><path d="m0 0l513.8268 0l0 257.77692l-513.8268 0l0 -257.77692z" clip-rule="nonzero"/></clipPath><g clip-path="url(#p.0)"><path fill="#000000" fill-opacity="0.0" d="m0 0l513.8268 0l0 257.77692l-513.8268 0z" fill-rule="evenodd"/><path fill="#3d85c6" d="m135.62466 123.99475l0 0c0 -65.81321 53.359207 -119.16535 119.18111 -119.16535l0 0c31.60881 0 61.92299 12.554885 84.27376 34.902725c22.3508 22.34784 34.90735 52.658016 34.90735 84.262634l0 0c0 65.8132 -53.35919 119.16536 -119.18111 119.16536l0 0c-65.8219 0 -119.18111 -53.352158 -119.18111 -119.16536z" fill-rule="evenodd"/><path stroke="#000000" stroke-width="2.0" stroke-linejoin="round" stroke-linecap="butt" d="m135.62466 123.99475l0 0c0 -65.81321 53.359207 -119.16535 119.18111 -119.16535l0 0c31.60881 0 61.92299 12.554885 84.27376 34.902725c22.3508 22.34784 34.90735 52.658016 34.90735 84.262634l0 0c0 65.8132 -53.35919 119.16536 -119.18111 119.16536l0 0c-65.8219 0 -119.18111 -53.352158 -119.18111 -119.16536z" fill-rule="evenodd"/><path fill="#cfe2f3" d="m139.15758 187.97354l0 0c15.655319 34.82437 88.107635 36.17105 161.82677 3.0078735c73.71915 -33.163177 120.789185 -88.277985 105.13388 -123.10237l0 0c6.6022644 35.545815 -39.94168 85.55611 -108.207184 116.26593c-68.26553 30.709824 -136.5513 32.35663 -158.75346 3.8285675z" fill-rule="evenodd"/><path stroke="#000000" stroke-width="2.0" stroke-linejoin="round" stroke-linecap="butt" d="m139.15758 187.97354l0 0c15.655319 34.82437 88.107635 36.17105 161.82677 3.0078735c73.71915 -33.163177 120.789185 -88.277985 105.13388 -123.10237l0 0c6.6022644 35.545815 -39.94168 85.55611 -108.207184 116.26593c-68.26553 30.709824 -136.5513 32.35663 -158.75346 3.8285675z" fill-rule="evenodd"/><path fill="#c9daf8" d="m7.8923883 151.2546l29.758743 -57.76378l464.06802 0l-29.758728 57.76378z" fill-rule="evenodd"/><path stroke="#000000" stroke-width="4.0" stroke-linejoin="round" stroke-linecap="butt" d="m7.8923883 151.2546l29.758743 -57.76378l464.06802 0l-29.758728 57.76378z" fill-rule="evenodd"/><path fill="#000000" fill-opacity="0.0" d="m42.317585 91.66404l298.86612 0l0 61.41732l-298.86612 0z" fill-rule="evenodd"/><path fill="#000000" d="m53.73946 128.9128q9.375 0.53125 12.734379 0.53125q0.796875 0 1.359375 -0.46875q0.578125 -0.46875 0.75 -1.2656326l0.65625 -3.125l-7.968754 0q-3.640625 0 -4.9375 -1.640625q-1.28125 -1.65625 -0.515625 -5.28125l0.234375 -1.046875q0.765625 -3.640625 2.75 -5.28125q2.0 -1.65625 5.640629 -1.65625l12.171875 0l-1.03125 4.859375l-10.78125 0q-2.0781288 0 -2.5156288 2.078125l-0.15625 0.6875q-0.4375 2.078125 1.640625 2.078125l6.234379 0q3.390625 0 4.65625 1.59375q1.265625 1.59375 0.53125 5.0l-0.359375 1.734375q-0.71875 3.3906326 -2.671875 4.9843826q-1.9375 1.59375 -5.328125 1.59375q-1.765625 0 -3.7187538 -0.0625l-3.15625 -0.140625q-3.515625 -0.171875 -7.203125 -0.484375l0.984375 -4.6875zm35.657215 -8.656258q-1.828125 0 -4.296875 0.6875l-1.765625 8.328133l5.203125 0q1.375 0 1.65625 -1.3906326l1.375 -6.40625q0.109375 -0.53125 -0.171875 -0.875q-0.265625 -0.34375 -0.78125 -0.34375l-1.21875 0zm-7.0625 13.687508l-1.25 5.890625l-6.0625 0l5.15625 -24.265633l5.375 0l-0.03125 1.734375q1.859375 -1.0625 3.6875 -1.5625q1.828125 -0.515625 3.0 -0.515625l1.5625 0q2.359375 0 3.46875 1.421875q1.125 1.421875 0.625 3.78125l-1.703125 7.9687576q-0.546875 2.59375 -2.34375 4.078125q-1.78125 1.46875 -4.375 1.46875l-7.109375 0zm24.00534 -4.5q1.828125 0 4.3125 -0.703125l0.4375 -2.0781326l-5.03125 0q-0.515625 0 -0.9375 0.359375q-0.421875 0.34375 -0.53125 0.859375l-0.0625 0.34375763q-0.109375 0.515625 0.15625 0.875q0.265625 0.34375 0.78125 0.34375l0.875 0zm-3.546875 -13.515633q6.5 -0.703125 11.59375 -0.703125q2.359375 0 3.46875 1.421875q1.125 1.421875 0.625 3.78125l-2.875 13.515633l-5.375 0l0.03125 -1.734375q-1.859375 1.078125 -3.6875 1.578125q-1.828125 0.5 -3.0 0.5l-1.21875 0q-2.359375 0 -3.484375 -1.421875q-1.109375 -1.421875 -0.609375 -3.78125l0.328125 -1.5468826q0.5 -2.359375 2.21875 -3.78125q1.734375 -1.421875 4.09375 -1.421875l7.109375 0l0.296875 -1.390625q0.109375 -0.515625 -0.171875 -0.859375q-0.28125 -0.34375 -0.796875 -0.34375q-2.25 0 -5.015625 0.203125q-2.75 0.203125 -4.453125 0.3125l0.921875 -4.328125zm32.29235 17.671883q-6.625 0.6875 -11.593742 0.6875q-2.34375 0 -3.46875 -1.421875q-1.109375 -1.421875 -0.609375 -3.78125l1.703125 -7.9687576q0.546875 -2.59375 2.328125 -4.0625q1.78125 -1.484375 4.390625 -1.484375l11.078117 0l-1.0 4.6875l-9.171875 0q-1.3906174 0 -1.6874924 1.390625l-1.4375 6.7500076q-0.109375 0.515625 0.15625 0.875q0.28125 0.34375 0.8125 0.34375q3.1093674 0 9.453117 -0.53125l-0.953125 4.515625zm12.873459 -14.031258q-1.390625 0 -1.6875 1.375l-0.40625 1.90625l5.890625 0l0.40625 -1.90625q0.296875 -1.375 -1.09375 -1.375l-3.109375 0zm6.890625 14.031258q-6.84375 0.6875 -12.296875 0.6875q-2.34375 0 -3.46875 -1.421875q-1.109375 -1.421875 -0.609375 -3.78125l1.765625 -8.312508q0.546875 -2.59375 2.328125 -4.0625q1.796875 -1.484375 4.40625 -1.484375l6.921875 0q2.609375 0 3.75 1.484375q1.15625 1.46875 0.609375 4.0625l-1.359375 6.40625l-11.953125 0l-0.296875 1.3906326q-0.109375 0.515625 0.15625 0.875q0.28125 0.34375 0.8125 0.34375q3.421875 0 10.15625 -0.515625l-0.921875 4.328125zm19.628159 -23.921883l14.5625 0q3.640625 0 4.921875 1.65625q1.296875 1.640625 0.53125 5.28125l-0.671875 3.125q-0.609375 2.875 -1.90625 4.46875q-1.28125 1.59375 -3.46875 2.109375l2.703125 7.6250076l-6.75 0l-2.4375 -7.2812576l-4.859375 0l-1.546875 7.2812576l-6.234375 0l5.15625 -24.265633zm13.78125 6.9375q0.4375 -2.078125 -1.640625 -2.078125l-6.9375 0l-1.546875 7.28125l6.9375 0q2.078125 0 2.515625 -2.078125l0.671875 -3.125zm13.905655 12.828133q1.828125 0 4.3125 -0.703125l0.4375 -2.0781326l-5.03125 0q-0.515625 0 -0.9375 0.359375q-0.421875 0.34375 -0.53125 0.859375l-0.0625 0.34375763q-0.109375 0.515625 0.15625 0.875q0.265625 0.34375 0.78125 0.34375l0.875 0zm-3.546875 -13.515633q6.5 -0.703125 11.59375 -0.703125q2.359375 0 3.46875 1.421875q1.125 1.421875 0.625 3.78125l-2.875 13.515633l-5.375 0l0.03125 -1.734375q-1.859375 1.078125 -3.6875 1.578125q-1.828125 0.5 -3.0 0.5l-1.21875 0q-2.359375 0 -3.484375 -1.421875q-1.109375 -1.421875 -0.609375 -3.78125l0.328125 -1.5468826q0.5 -2.359375 2.21875 -3.78125q1.734375 -1.421875 4.09375 -1.421875l7.109375 0l0.296875 -1.390625q0.109375 -0.515625 -0.171875 -0.859375q-0.28125 -0.34375 -0.796875 -0.34375q-2.25 0 -5.015625 0.203125q-2.75 0.203125 -4.453125 0.3125l0.921875 -4.328125zm32.29236 17.671883q-6.625 0.6875 -11.59375 0.6875q-2.34375 0 -3.46875 -1.421875q-1.109375 -1.421875 -0.609375 -3.78125l1.703125 -7.9687576q0.546875 -2.59375 2.328125 -4.0625q1.78125 -1.484375 4.390625 -1.484375l11.078125 0l-1.0 4.6875l-9.171875 0q-1.390625 0 -1.6875 1.390625l-1.4375 6.7500076q-0.109375 0.515625 0.15625 0.875q0.28125 0.34375 0.8125 0.34375q3.109375 0 9.453125 -0.53125l-0.953125 4.515625zm12.873459 -14.031258q-1.390625 0 -1.6875 1.375l-0.40625 1.90625l5.890625 0l0.40625 -1.90625q0.296875 -1.375 -1.09375 -1.375l-3.109375 0zm6.890625 14.031258q-6.84375 0.6875 -12.296875 0.6875q-2.34375 0 -3.46875 -1.421875q-1.109375 -1.421875 -0.609375 -3.78125l1.765625 -8.312508q0.546875 -2.59375 2.328125 -4.0625q1.796875 -1.484375 4.40625 -1.484375l6.921875 0q2.609375 0 3.75 1.484375q1.15625 1.46875 0.609375 4.0625l-1.359375 6.40625l-11.953125 0l-0.296875 1.3906326q-0.109375 0.515625 0.15625 0.875q0.28125 0.34375 0.8125 0.34375q3.421875 0 10.15625 -0.515625l-0.921875 4.328125zm20.706299 0.34375l-6.234375 0l5.15625 -24.265633l6.234375 0l-2.03125 9.53125l3.125 0l7.4375 -9.53125l6.578125 0l-9.328125 11.96875l4.140625 12.296883l-6.578125 0l-3.28125 -9.875008l-3.125 0l-2.09375 9.875008zm25.083893 -4.5q1.828125 0 4.3125 -0.703125l0.4375 -2.0781326l-5.03125 0q-0.515625 0 -0.9375 0.359375q-0.421875 0.34375 -0.53125 0.859375l-0.0625 0.34375763q-0.109375 0.515625 0.15625 0.875q0.265625 0.34375 0.78125 0.34375l0.875 0zm-3.546875 -13.515633q6.5 -0.703125 11.59375 -0.703125q2.359375 0 3.46875 1.421875q1.125 1.421875 0.625 3.78125l-2.875 13.515633l-5.375 0l0.03125 -1.734375q-1.859375 1.078125 -3.6875 1.578125q-1.828125 0.5 -3.0 0.5l-1.21875 0q-2.359375 0 -3.484375 -1.421875q-1.109375 -1.421875 -0.609375 -3.78125l0.328125 -1.5468826q0.5 -2.359375 2.21875 -3.78125q1.734375 -1.421875 4.09375 -1.421875l7.109375 0l0.296875 -1.390625q0.109375 -0.515625 -0.171875 -0.859375q-0.28125 -0.34375 -0.796875 -0.34375q-2.25 0 -5.015625 0.203125q-2.75 0.203125 -4.453125 0.3125l0.921875 -4.328125zm27.307983 0.34375l-3.75 17.671883l-6.0625 0l2.765625 -13.000008l-2.609375 0l0.984375 -4.671875l8.671875 0zm-4.578125 -6.9375l6.0625 0l-1.03125 4.859375l-6.0625 0l1.03125 -4.859375z" fill-rule="nonzero"/><path fill="#000000" fill-opacity="0.0" d="m331.29398 93.28609l109.35431 0l0 42.015747l-109.35431 0z" fill-rule="evenodd"/><path fill="#000000" d="m358.3721 115.956085q-1.5 2.546875 -2.21875 4.4375q-2.421875 -1.125 -5.59375 -2.859375q-2.96875 1.8125 -6.53125 2.796875q-0.71875 -1.125 -1.453125 -2.109375q-0.71875 -1.0 -1.828125 -2.25q3.9375 -0.46875 6.703125 -1.71875q2.765625 -1.265625 4.609375 -3.375l-10.203125 0l0 -4.03125l14.1875 -0.078125l1.765625 3.921875q-1.625 2.328125 -3.6875 4.203125q2.15625 0.8125 4.25 1.0625zm19.546875 -1.234375q-0.734375 1.046875 -1.3125 2.125q-0.5625 1.0625 -1.25 2.578125q-5.890625 -4.671875 -8.625 -6.640625q-0.078125 -0.0625 -0.203125 -0.0625q-0.234375 0 -0.5 0.1875q-1.109375 0.84375 -2.265625 1.890625q-1.140625 1.046875 -3.46875 3.3125q-0.21875 -1.15625 -0.65625 -2.328125q-0.421875 -1.1875 -1.09375 -2.765625q3.796875 -3.03125 4.921875 -4.1875q0.65625 -0.671875 1.234375 -0.984375q0.578125 -0.3125 1.15625 -0.3125q0.625 0 1.328125 0.34375q0.703125 0.34375 1.75 1.078125l0.921875 0.671875q2.015625 1.4375 3.828125 2.625q1.828125 1.1875 4.234375 2.46875zm-3.984375 -3.609375q-0.65625 0 -1.234375 -0.328125q-0.5625 -0.328125 -0.890625 -0.890625q-0.328125 -0.578125 -0.328125 -1.25q0 -0.65625 0.328125 -1.21875q0.328125 -0.5625 0.890625 -0.890625q0.578125 -0.328125 1.234375 -0.328125q0.640625 0 1.203125 0.328125q0.578125 0.328125 0.90625 0.890625q0.328125 0.5625 0.328125 1.21875q0 0.671875 -0.328125 1.25q-0.328125 0.5625 -0.90625 0.890625q-0.5625 0.328125 -1.203125 0.328125zm0 -1.109375q0.546875 0 0.9375 -0.390625q0.40625 -0.40625 0.40625 -0.96875q0 -0.53125 -0.40625 -0.9375q-0.390625 -0.40625 -0.9375 -0.40625q-0.5625 0 -0.953125 0.40625q-0.390625 0.40625 -0.390625 0.9375q0 0.5625 0.390625 0.96875q0.390625 0.390625 0.953125 0.390625zm21.1875 5.515625l-16.171875 0l0 -4.359375l16.171875 0l0 4.359375zm19.21875 0.4375q-1.5 2.546875 -2.21875 4.4375q-2.421875 -1.125 -5.59375 -2.859375q-2.96875 1.8125 -6.53125 2.796875q-0.71875 -1.125 -1.453125 -2.109375q-0.71875 -1.0 -1.828125 -2.25q3.9375 -0.46875 6.703125 -1.71875q2.765625 -1.265625 4.609375 -3.375l-10.203125 0l0 -4.03125l14.1875 -0.078125l1.765625 3.921875q-1.625 2.328125 -3.6875 4.203125q2.15625 0.8125 4.25 1.0625z" fill-rule="nonzero"/><path fill="#000000" fill-opacity="0.0" d="m341.18372 109.44357l89.57483 0l0 42.015747l-89.57483 0z" fill-rule="evenodd"/><path fill="#000000" d="m364.93372 124.254196q0.84375 1.03125 1.75 1.796875q0.90625 0.765625 2.046875 1.4375q-1.984375 3.1875 -5.390625 5.640625q-3.40625 2.453125 -8.484375 3.359375l-3.484375 -2.4375l0 -11.375l5.03125 0l0 8.671875q2.515625 -0.578125 4.71875 -2.359375q2.21875 -1.796875 3.8125 -4.734375zm21.421875 7.421875l-16.171875 0l0 -4.359375l16.171875 0l0 4.359375zm19.21875 0.4375q-1.5 2.546875 -2.21875 4.4375q-2.421875 -1.125 -5.59375 -2.859375q-2.96875 1.8125 -6.53125 2.796875q-0.71875 -1.125 -1.453125 -2.109375q-0.71875 -1.0 -1.828125 -2.25q3.9375 -0.46875 6.703125 -1.71875q2.765625 -1.265625 4.609375 -3.375l-10.203125 0l0 -4.03125l14.1875 -0.078125l1.765625 3.921875q-1.625 2.328125 -3.6875 4.203125q2.15625 0.8125 4.25 1.0625z" fill-rule="nonzero"/><path fill="#000000" fill-opacity="0.0" d="m407.82153 86.8294l60.881866 0l0 71.08662l-60.881866 0z" fill-rule="evenodd"/><path fill="#000000" d="m457.72778 104.71127l0 25.546875q0 3.078125 -0.5 4.25q-0.484375 1.171875 -2.28125 1.609375q-1.78125 0.421875 -6.296875 0.375q-0.09375 -3.03125 -0.46875 -5.5l-2.21875 0l0 5.328125l-7.09375 0l0 -5.328125l-2.296875 0q-0.296875 1.78125 -0.9375 3.109375l-0.515625 1.109375q-0.34375 0.984375 -0.84375 1.53125q-1.96875 -0.9375 -3.609375 -1.546875q-1.640625 -0.625 -3.3125 -0.875l0 2.21875l-8.78125 0l0 -31.828125l19.1875 0l0 14.71875l-10.40625 0l0 14.28125q1.375 -0.96875 2.015625 -2.125l0.296875 -0.59375l-1.671875 0l0 -5.171875l2.265625 0l0 -0.9375l-2.265625 0l0 -4.765625l20.21875 0l0 4.765625l-2.25 0l0 0.9375l2.25 0l0 2.1875q0.4375 -0.046875 0.578125 -0.34375q0.15625 -0.296875 0.15625 -1.15625l0 -7.078125l-10.375 0l0 -14.71875l19.15625 0zm-27.046875 4.6875l-3.328125 0l0 0.859375l3.328125 0l0 -0.859375zm14.9375 0l0 0.859375l3.328125 0l0 -0.859375l-3.328125 0zm-14.9375 5.03125l0 -0.890625l-3.328125 0l0 0.890625l3.328125 0zm14.9375 0l3.328125 0l0 -0.890625l-3.328125 0l0 0.890625zm-6.75 11.390625l0 -0.9375l-1.90625 0l-0.046875 0.9375l1.953125 0z" fill-rule="nonzero"/><path fill="#efefef" d="m402.93463 49.927612l-14.827148 16.581001l-33.60309 -36.0167l8.896301 -9.948597z" fill-rule="evenodd"/><path stroke="#000000" stroke-width="2.0" stroke-linejoin="round" stroke-linecap="butt" d="m402.93463 49.927612l-14.827148 16.581001l-33.60309 -36.0167l8.896301 -9.948597z" fill-rule="evenodd"/><path fill="#cfe2f3" d="m401.1658 51.894043l4.883606 -5.4514885l-31.450256 -18.283148z" fill-rule="evenodd"/><path stroke="#000000" stroke-width="2.0" stroke-linejoin="round" stroke-linecap="butt" d="m401.1658 51.894043l4.883606 -5.4514885l-31.450256 -18.283148z" fill-rule="evenodd"/><path fill="#cfe2f3" d="m390.0241 64.53514l-8.764252 9.825905l-21.438446 -36.82595z" fill-rule="evenodd"/><path stroke="#000000" stroke-width="2.0" stroke-linejoin="round" stroke-linecap="butt" d="m390.0241 64.53514l-8.764252 9.825905l-21.438446 -36.82595z" fill-rule="evenodd"/><path fill="#999999" d="m354.29254 29.858545l8.451843 -9.451607l-13.420288 -8.598887l-5.0711365 5.6709642z" fill-rule="evenodd"/><path stroke="#000000" stroke-width="2.0" stroke-linejoin="round" stroke-linecap="butt" d="m354.29254 29.858545l8.451843 -9.451607l-13.420288 -8.598887l-5.0711365 5.6709642z" fill-rule="evenodd"/><path fill="#666666" d="m406.32227 59.37042l-3.0804443 -2.7520142l0 0c-1.701294 -1.5198936 -4.977356 -0.6377144 -7.317322 1.9704056c-2.3399353 2.60812 -2.8576965 5.9545326 -1.1564026 7.47443l3.0804138 2.7520142z" fill-rule="evenodd"/><path stroke="#000000" stroke-width="2.0" stroke-linejoin="round" stroke-linecap="butt" d="m406.32227 59.37042l-3.0804443 -2.7520142l0 0c-1.701294 -1.5198936 -4.977356 -0.6377144 -7.317322 1.9704056c-2.3399353 2.60812 -2.8576965 5.9545326 -1.1564026 7.47443l3.0804138 2.7520142z" fill-rule="evenodd"/></g></svg>